<mxfile host="app.diagrams.net" modified="2022-05-11T05:28:42.357Z" agent="5.0 (Macintosh; Intel Mac OS X 10_15_7) AppleWebKit/537.36 (KHTML, like Gecko) Chrome/100.0.4896.75 Safari/537.36" etag="2QQMgowXvTL-mldDh1C5" version="17.4.0" type="github">
  <diagram id="8jWHqD3x7RygeazGoGZq" name="Page-1">
    <mxGraphModel dx="1251" dy="661" grid="1" gridSize="10" guides="1" tooltips="1" connect="1" arrows="1" fold="1" page="1" pageScale="1" pageWidth="1169" pageHeight="1654" math="0" shadow="0">
      <root>
        <mxCell id="0" />
        <mxCell id="1" parent="0" />
        <mxCell id="ZXUQTXngMua6hEGJQAiq-223" value="" style="rounded=0;whiteSpace=wrap;html=1;labelBackgroundColor=default;fontSize=14;fillColor=#e1d5e7;strokeColor=#9673a6;" vertex="1" parent="1">
          <mxGeometry x="400" y="240" width="200" height="260" as="geometry" />
        </mxCell>
        <mxCell id="ZXUQTXngMua6hEGJQAiq-225" style="edgeStyle=none;rounded=0;jumpStyle=arc;jumpSize=13;orthogonalLoop=1;jettySize=auto;html=1;entryX=0;entryY=0.5;entryDx=0;entryDy=0;fontSize=14;fontColor=#000000;startArrow=none;startFill=0;endArrow=classic;endFill=1;strokeColor=#000000;" edge="1" parent="1" source="ZXUQTXngMua6hEGJQAiq-197" target="ZXUQTXngMua6hEGJQAiq-200">
          <mxGeometry relative="1" as="geometry" />
        </mxCell>
        <mxCell id="ZXUQTXngMua6hEGJQAiq-228" style="edgeStyle=none;rounded=0;jumpStyle=arc;jumpSize=13;orthogonalLoop=1;jettySize=auto;html=1;entryX=0;entryY=0.5;entryDx=0;entryDy=0;fontSize=14;fontColor=#000000;startArrow=none;startFill=0;endArrow=classic;endFill=1;strokeColor=#000000;" edge="1" parent="1" source="ZXUQTXngMua6hEGJQAiq-197" target="ZXUQTXngMua6hEGJQAiq-217">
          <mxGeometry relative="1" as="geometry" />
        </mxCell>
        <mxCell id="ZXUQTXngMua6hEGJQAiq-197" value="Producer" style="ellipse;whiteSpace=wrap;html=1;labelBackgroundColor=none;fillColor=#dae8fc;strokeColor=#6c8ebf;fontSize=14;" vertex="1" parent="1">
          <mxGeometry x="190" y="345" width="80" height="60" as="geometry" />
        </mxCell>
        <mxCell id="ZXUQTXngMua6hEGJQAiq-230" style="edgeStyle=none;rounded=0;jumpStyle=arc;jumpSize=13;orthogonalLoop=1;jettySize=auto;html=1;entryX=-0.011;entryY=0.637;entryDx=0;entryDy=0;entryPerimeter=0;fontSize=14;fontColor=#000000;startArrow=none;startFill=0;endArrow=classic;endFill=1;strokeColor=#000000;" edge="1" parent="1" source="ZXUQTXngMua6hEGJQAiq-200" target="ZXUQTXngMua6hEGJQAiq-204">
          <mxGeometry relative="1" as="geometry" />
        </mxCell>
        <mxCell id="ZXUQTXngMua6hEGJQAiq-200" value="" style="rounded=0;whiteSpace=wrap;html=1;labelBackgroundColor=default;fontSize=14;fillColor=#fff2cc;strokeColor=#d6b656;" vertex="1" parent="1">
          <mxGeometry x="410" y="265" width="180" height="85" as="geometry" />
        </mxCell>
        <mxCell id="ZXUQTXngMua6hEGJQAiq-204" value="Consumer A" style="rounded=0;whiteSpace=wrap;html=1;labelBackgroundColor=none;fontSize=14;fillColor=#f8cecc;strokeColor=#b85450;" vertex="1" parent="1">
          <mxGeometry x="680" y="269.5" width="120" height="60" as="geometry" />
        </mxCell>
        <mxCell id="ZXUQTXngMua6hEGJQAiq-205" value="Consumer&amp;nbsp;B" style="rounded=0;whiteSpace=wrap;html=1;labelBackgroundColor=none;fontSize=14;fillColor=#f8cecc;strokeColor=#b85450;" vertex="1" parent="1">
          <mxGeometry x="680" y="417.5" width="120" height="60" as="geometry" />
        </mxCell>
        <mxCell id="ZXUQTXngMua6hEGJQAiq-211" value="X" style="rounded=0;whiteSpace=wrap;html=1;labelBackgroundColor=none;fontSize=14;fontColor=#000000;fillColor=none;" vertex="1" parent="1">
          <mxGeometry x="475" y="272.5" width="100" height="30" as="geometry" />
        </mxCell>
        <mxCell id="ZXUQTXngMua6hEGJQAiq-212" value="Y，Z" style="rounded=0;whiteSpace=wrap;html=1;labelBackgroundColor=none;fontSize=14;fontColor=#000000;fillColor=none;" vertex="1" parent="1">
          <mxGeometry x="475" y="312.5" width="100" height="30" as="geometry" />
        </mxCell>
        <mxCell id="ZXUQTXngMua6hEGJQAiq-213" value="queue 0" style="text;html=1;strokeColor=none;fillColor=none;align=center;verticalAlign=middle;whiteSpace=wrap;rounded=0;labelBackgroundColor=none;fontSize=14;fontColor=#000000;" vertex="1" parent="1">
          <mxGeometry x="415" y="272.5" width="60" height="30" as="geometry" />
        </mxCell>
        <mxCell id="ZXUQTXngMua6hEGJQAiq-214" value="queue 1" style="text;html=1;strokeColor=none;fillColor=none;align=center;verticalAlign=middle;whiteSpace=wrap;rounded=0;labelBackgroundColor=none;fontSize=14;fontColor=#000000;" vertex="1" parent="1">
          <mxGeometry x="415" y="312.5" width="60" height="30" as="geometry" />
        </mxCell>
        <mxCell id="ZXUQTXngMua6hEGJQAiq-216" value="订单 Topic&amp;nbsp;" style="text;html=1;strokeColor=none;fillColor=none;align=center;verticalAlign=middle;whiteSpace=wrap;rounded=0;labelBackgroundColor=none;fontSize=14;fontColor=#000000;" vertex="1" parent="1">
          <mxGeometry x="460" y="240" width="100" height="25" as="geometry" />
        </mxCell>
        <mxCell id="ZXUQTXngMua6hEGJQAiq-231" style="edgeStyle=none;rounded=0;jumpStyle=arc;jumpSize=13;orthogonalLoop=1;jettySize=auto;html=1;entryX=0;entryY=0.5;entryDx=0;entryDy=0;fontSize=14;fontColor=#000000;startArrow=none;startFill=0;endArrow=classic;endFill=1;strokeColor=#000000;" edge="1" parent="1" source="ZXUQTXngMua6hEGJQAiq-217" target="ZXUQTXngMua6hEGJQAiq-205">
          <mxGeometry relative="1" as="geometry" />
        </mxCell>
        <mxCell id="ZXUQTXngMua6hEGJQAiq-217" value="" style="rounded=0;whiteSpace=wrap;html=1;labelBackgroundColor=default;fontSize=14;fillColor=#fff2cc;strokeColor=#d6b656;" vertex="1" parent="1">
          <mxGeometry x="410" y="405" width="180" height="85" as="geometry" />
        </mxCell>
        <mxCell id="ZXUQTXngMua6hEGJQAiq-218" value="A" style="rounded=0;whiteSpace=wrap;html=1;labelBackgroundColor=none;fontSize=14;fontColor=#000000;fillColor=none;" vertex="1" parent="1">
          <mxGeometry x="475" y="412.5" width="100" height="30" as="geometry" />
        </mxCell>
        <mxCell id="ZXUQTXngMua6hEGJQAiq-219" value="B，C" style="rounded=0;whiteSpace=wrap;html=1;labelBackgroundColor=none;fontSize=14;fontColor=#000000;fillColor=none;" vertex="1" parent="1">
          <mxGeometry x="475" y="452.5" width="100" height="30" as="geometry" />
        </mxCell>
        <mxCell id="ZXUQTXngMua6hEGJQAiq-220" value="queue 0" style="text;html=1;strokeColor=none;fillColor=none;align=center;verticalAlign=middle;whiteSpace=wrap;rounded=0;labelBackgroundColor=none;fontSize=14;fontColor=#000000;" vertex="1" parent="1">
          <mxGeometry x="415" y="412.5" width="60" height="30" as="geometry" />
        </mxCell>
        <mxCell id="ZXUQTXngMua6hEGJQAiq-221" value="queue 1" style="text;html=1;strokeColor=none;fillColor=none;align=center;verticalAlign=middle;whiteSpace=wrap;rounded=0;labelBackgroundColor=none;fontSize=14;fontColor=#000000;" vertex="1" parent="1">
          <mxGeometry x="415" y="452.5" width="60" height="30" as="geometry" />
        </mxCell>
        <mxCell id="ZXUQTXngMua6hEGJQAiq-222" value="营销 Topic&amp;nbsp;" style="text;html=1;strokeColor=none;fillColor=none;align=center;verticalAlign=middle;whiteSpace=wrap;rounded=0;labelBackgroundColor=none;fontSize=14;fontColor=#000000;" vertex="1" parent="1">
          <mxGeometry x="460" y="380" width="100" height="25" as="geometry" />
        </mxCell>
        <mxCell id="ZXUQTXngMua6hEGJQAiq-224" value="Broker" style="text;html=1;strokeColor=none;fillColor=none;align=center;verticalAlign=middle;whiteSpace=wrap;rounded=0;labelBackgroundColor=none;fontSize=14;fontColor=#000000;" vertex="1" parent="1">
          <mxGeometry x="470" y="210" width="100" height="25" as="geometry" />
        </mxCell>
        <mxCell id="ZXUQTXngMua6hEGJQAiq-227" value="订单 Topic：X,Y,Z" style="text;html=1;strokeColor=none;fillColor=none;align=center;verticalAlign=middle;whiteSpace=wrap;rounded=0;labelBackgroundColor=none;fontSize=14;fontColor=#000000;rotation=-22;" vertex="1" parent="1">
          <mxGeometry x="269.64" y="310.63" width="120" height="25" as="geometry" />
        </mxCell>
        <mxCell id="ZXUQTXngMua6hEGJQAiq-229" value="营销 Topic：A,B,C" style="text;html=1;strokeColor=none;fillColor=none;align=center;verticalAlign=middle;whiteSpace=wrap;rounded=0;labelBackgroundColor=none;fontSize=14;fontColor=#000000;rotation=22;" vertex="1" parent="1">
          <mxGeometry x="278.64" y="393" width="120" height="25" as="geometry" />
        </mxCell>
        <mxCell id="ZXUQTXngMua6hEGJQAiq-250" style="edgeStyle=orthogonalEdgeStyle;rounded=0;jumpStyle=arc;jumpSize=13;orthogonalLoop=1;jettySize=auto;html=1;entryX=0;entryY=0.75;entryDx=0;entryDy=0;fontSize=14;fontColor=#000000;startArrow=none;startFill=0;endArrow=classic;endFill=1;strokeColor=#000000;curved=1;" edge="1" parent="1" source="ZXUQTXngMua6hEGJQAiq-236" target="ZXUQTXngMua6hEGJQAiq-248">
          <mxGeometry relative="1" as="geometry" />
        </mxCell>
        <mxCell id="ZXUQTXngMua6hEGJQAiq-236" value="Producer" style="shape=umlActor;verticalLabelPosition=bottom;verticalAlign=top;html=1;outlineConnect=0;labelBackgroundColor=none;fontSize=14;fontColor=#000000;fillColor=none;" vertex="1" parent="1">
          <mxGeometry x="50" y="817" width="30" height="60" as="geometry" />
        </mxCell>
        <mxCell id="ZXUQTXngMua6hEGJQAiq-241" value="" style="rounded=0;whiteSpace=wrap;html=1;labelBackgroundColor=none;fontSize=14;fontColor=#000000;fillColor=none;" vertex="1" parent="1">
          <mxGeometry x="241.36" y="714" width="60" height="236" as="geometry" />
        </mxCell>
        <mxCell id="ZXUQTXngMua6hEGJQAiq-243" value="" style="rounded=0;whiteSpace=wrap;html=1;labelBackgroundColor=none;fontSize=14;fillColor=#F8CECC;strokeColor=#000000;" vertex="1" parent="1">
          <mxGeometry x="251.36" y="720" width="40" height="40" as="geometry" />
        </mxCell>
        <mxCell id="ZXUQTXngMua6hEGJQAiq-260" style="edgeStyle=orthogonalEdgeStyle;rounded=0;jumpStyle=arc;jumpSize=13;orthogonalLoop=1;jettySize=auto;html=1;entryX=0.5;entryY=0;entryDx=0;entryDy=0;fontSize=14;fontColor=#000000;startArrow=none;startFill=0;endArrow=classic;endFill=1;strokeColor=#000000;" edge="1" parent="1" source="ZXUQTXngMua6hEGJQAiq-244" target="ZXUQTXngMua6hEGJQAiq-257">
          <mxGeometry relative="1" as="geometry">
            <Array as="points">
              <mxPoint x="450" y="784" />
              <mxPoint x="450" y="690" />
              <mxPoint x="765" y="690" />
            </Array>
          </mxGeometry>
        </mxCell>
        <mxCell id="ZXUQTXngMua6hEGJQAiq-244" value="" style="rounded=0;whiteSpace=wrap;html=1;labelBackgroundColor=none;fontSize=14;fontColor=#000000;fillColor=#F8CECC;" vertex="1" parent="1">
          <mxGeometry x="251.36" y="764" width="40" height="40" as="geometry" />
        </mxCell>
        <mxCell id="ZXUQTXngMua6hEGJQAiq-245" value="" style="rounded=0;whiteSpace=wrap;html=1;labelBackgroundColor=none;fontSize=14;fontColor=#000000;fillColor=#F8CECC;" vertex="1" parent="1">
          <mxGeometry x="251.36" y="808" width="40" height="40" as="geometry" />
        </mxCell>
        <mxCell id="ZXUQTXngMua6hEGJQAiq-247" value="" style="rounded=0;whiteSpace=wrap;html=1;labelBackgroundColor=none;fontSize=14;fontColor=#000000;fillColor=#F8CECC;" vertex="1" parent="1">
          <mxGeometry x="251.36" y="852" width="40" height="40" as="geometry" />
        </mxCell>
        <mxCell id="ZXUQTXngMua6hEGJQAiq-248" value="" style="rounded=0;whiteSpace=wrap;html=1;labelBackgroundColor=none;fontSize=14;fontColor=#000000;fillColor=none;dashed=1;" vertex="1" parent="1">
          <mxGeometry x="251.36" y="898" width="40" height="40" as="geometry" />
        </mxCell>
        <mxCell id="ZXUQTXngMua6hEGJQAiq-251" value="" style="rounded=0;whiteSpace=wrap;html=1;labelBackgroundColor=none;fontSize=14;fontColor=#000000;fillColor=none;" vertex="1" parent="1">
          <mxGeometry x="540" y="720" width="280" height="50" as="geometry" />
        </mxCell>
        <mxCell id="ZXUQTXngMua6hEGJQAiq-309" style="edgeStyle=none;rounded=0;jumpStyle=arc;jumpSize=13;orthogonalLoop=1;jettySize=auto;html=1;fontSize=14;fontColor=#000000;startArrow=none;startFill=0;endArrow=classic;endFill=1;strokeColor=#000000;" edge="1" parent="1" source="ZXUQTXngMua6hEGJQAiq-252" target="ZXUQTXngMua6hEGJQAiq-307">
          <mxGeometry relative="1" as="geometry" />
        </mxCell>
        <mxCell id="ZXUQTXngMua6hEGJQAiq-252" value="" style="rounded=0;whiteSpace=wrap;html=1;labelBackgroundColor=none;fontSize=14;fillColor=#F8CECC;strokeColor=#000000;" vertex="1" parent="1">
          <mxGeometry x="548" y="726" width="30" height="40" as="geometry" />
        </mxCell>
        <mxCell id="ZXUQTXngMua6hEGJQAiq-253" value="" style="rounded=0;whiteSpace=wrap;html=1;labelBackgroundColor=none;fontSize=14;fillColor=#F8CECC;strokeColor=#000000;" vertex="1" parent="1">
          <mxGeometry x="590" y="726" width="30" height="40" as="geometry" />
        </mxCell>
        <mxCell id="ZXUQTXngMua6hEGJQAiq-254" value="" style="rounded=0;whiteSpace=wrap;html=1;labelBackgroundColor=none;fontSize=14;fillColor=#F8CECC;strokeColor=#000000;" vertex="1" parent="1">
          <mxGeometry x="630" y="726" width="30" height="40" as="geometry" />
        </mxCell>
        <mxCell id="ZXUQTXngMua6hEGJQAiq-303" style="rounded=0;jumpStyle=arc;jumpSize=13;orthogonalLoop=1;jettySize=auto;html=1;entryX=0.75;entryY=0;entryDx=0;entryDy=0;fontSize=14;fontColor=#000000;startArrow=none;startFill=0;endArrow=classic;endFill=1;strokeColor=#000000;exitX=0.5;exitY=1;exitDx=0;exitDy=0;" edge="1" parent="1" source="ZXUQTXngMua6hEGJQAiq-255" target="ZXUQTXngMua6hEGJQAiq-302">
          <mxGeometry relative="1" as="geometry" />
        </mxCell>
        <mxCell id="ZXUQTXngMua6hEGJQAiq-255" value="" style="rounded=0;whiteSpace=wrap;html=1;labelBackgroundColor=none;fontSize=14;fillColor=none;strokeColor=#000000;dashed=1;" vertex="1" parent="1">
          <mxGeometry x="670" y="726" width="30" height="40" as="geometry" />
        </mxCell>
        <mxCell id="ZXUQTXngMua6hEGJQAiq-312" style="edgeStyle=none;rounded=0;jumpStyle=arc;jumpSize=13;orthogonalLoop=1;jettySize=auto;html=1;entryX=0;entryY=0.5;entryDx=0;entryDy=0;fontSize=14;fontColor=#000000;startArrow=none;startFill=0;endArrow=classic;endFill=1;strokeColor=#000000;" edge="1" parent="1" source="ZXUQTXngMua6hEGJQAiq-256" target="ZXUQTXngMua6hEGJQAiq-311">
          <mxGeometry relative="1" as="geometry" />
        </mxCell>
        <mxCell id="ZXUQTXngMua6hEGJQAiq-256" value="" style="rounded=0;whiteSpace=wrap;html=1;labelBackgroundColor=none;fontSize=14;fillColor=none;strokeColor=#000000;dashed=1;" vertex="1" parent="1">
          <mxGeometry x="710" y="726" width="30" height="40" as="geometry" />
        </mxCell>
        <mxCell id="ZXUQTXngMua6hEGJQAiq-257" value="" style="rounded=0;whiteSpace=wrap;html=1;labelBackgroundColor=none;fontSize=14;fillColor=none;strokeColor=#000000;dashed=1;" vertex="1" parent="1">
          <mxGeometry x="750" y="726" width="30" height="40" as="geometry" />
        </mxCell>
        <mxCell id="ZXUQTXngMua6hEGJQAiq-290" value="commitLogOffset&lt;br&gt;size&lt;br&gt;tag hashCode" style="text;html=1;strokeColor=none;fillColor=none;align=center;verticalAlign=middle;whiteSpace=wrap;rounded=0;labelBackgroundColor=none;fontSize=14;fontColor=#000000;" vertex="1" parent="1">
          <mxGeometry x="338.64" y="744" width="60" height="30" as="geometry" />
        </mxCell>
        <mxCell id="ZXUQTXngMua6hEGJQAiq-300" style="edgeStyle=orthogonalEdgeStyle;rounded=0;jumpStyle=arc;jumpSize=13;orthogonalLoop=1;jettySize=auto;html=1;fontSize=14;fontColor=#000000;startArrow=none;startFill=0;endArrow=classic;endFill=1;strokeColor=#000000;curved=1;dashed=1;" edge="1" parent="1">
          <mxGeometry relative="1" as="geometry">
            <mxPoint x="970" y="790" as="sourcePoint" />
            <mxPoint x="690" y="766" as="targetPoint" />
            <Array as="points">
              <mxPoint x="970" y="826" />
              <mxPoint x="690" y="826" />
            </Array>
          </mxGeometry>
        </mxCell>
        <mxCell id="ZXUQTXngMua6hEGJQAiq-295" value="Consumer" style="shape=umlActor;verticalLabelPosition=bottom;verticalAlign=top;html=1;outlineConnect=0;labelBackgroundColor=none;fontSize=14;fontColor=#000000;fillColor=none;" vertex="1" parent="1">
          <mxGeometry x="980" y="766" width="30" height="60" as="geometry" />
        </mxCell>
        <mxCell id="ZXUQTXngMua6hEGJQAiq-302" value="consumeOffset" style="text;html=1;strokeColor=none;fillColor=none;align=center;verticalAlign=middle;whiteSpace=wrap;rounded=0;labelBackgroundColor=none;fontSize=14;fontColor=#000000;" vertex="1" parent="1">
          <mxGeometry x="610" y="796" width="60" height="30" as="geometry" />
        </mxCell>
        <mxCell id="ZXUQTXngMua6hEGJQAiq-307" value="minOffset" style="text;html=1;strokeColor=none;fillColor=none;align=center;verticalAlign=middle;whiteSpace=wrap;rounded=0;labelBackgroundColor=none;fontSize=14;fontColor=#000000;" vertex="1" parent="1">
          <mxGeometry x="514" y="796" width="60" height="30" as="geometry" />
        </mxCell>
        <mxCell id="ZXUQTXngMua6hEGJQAiq-311" value="maxOffset" style="text;html=1;strokeColor=none;fillColor=none;align=center;verticalAlign=middle;whiteSpace=wrap;rounded=0;labelBackgroundColor=none;fontSize=14;fontColor=#000000;" vertex="1" parent="1">
          <mxGeometry x="750" y="781" width="60" height="30" as="geometry" />
        </mxCell>
        <mxCell id="ZXUQTXngMua6hEGJQAiq-319" value="Message" style="text;html=1;strokeColor=none;fillColor=none;align=center;verticalAlign=middle;whiteSpace=wrap;rounded=0;labelBackgroundColor=none;fontSize=14;fontColor=#000000;" vertex="1" parent="1">
          <mxGeometry x="90" y="920" width="60" height="30" as="geometry" />
        </mxCell>
        <mxCell id="ZXUQTXngMua6hEGJQAiq-321" value="consumeQueue" style="text;html=1;strokeColor=none;fillColor=none;align=center;verticalAlign=middle;whiteSpace=wrap;rounded=0;dashed=1;labelBackgroundColor=none;fontSize=14;fontColor=#000000;" vertex="1" parent="1">
          <mxGeometry x="850" y="731" width="60" height="30" as="geometry" />
        </mxCell>
        <mxCell id="ZXUQTXngMua6hEGJQAiq-324" value="&lt;span style=&quot;font-family: arial, sans-serif; font-size: 20px; background-color: rgb(255, 255, 255);&quot;&gt;①&lt;/span&gt;" style="text;html=1;strokeColor=none;fillColor=none;align=center;verticalAlign=middle;whiteSpace=wrap;rounded=0;dashed=1;labelBackgroundColor=none;fontSize=20;fontColor=#FF0000;" vertex="1" parent="1">
          <mxGeometry x="160" y="859" width="30" height="18" as="geometry" />
        </mxCell>
        <mxCell id="ZXUQTXngMua6hEGJQAiq-325" value="&lt;span style=&quot;font-family: arial, sans-serif; font-size: 20px; background-color: rgb(255, 255, 255);&quot;&gt;②&lt;/span&gt;" style="text;html=1;strokeColor=none;fillColor=none;align=center;verticalAlign=middle;whiteSpace=wrap;rounded=0;dashed=1;labelBackgroundColor=none;fontSize=20;fontColor=#FF0000;" vertex="1" parent="1">
          <mxGeometry x="500" y="669" width="30" height="18" as="geometry" />
        </mxCell>
        <mxCell id="ZXUQTXngMua6hEGJQAiq-328" value="&lt;span style=&quot;font-family: &amp;#34;arial&amp;#34; , sans-serif ; background-color: rgb(255 , 255 , 255)&quot;&gt;&lt;font style=&quot;font-size: 20px&quot;&gt;③&lt;/font&gt;&lt;/span&gt;" style="text;html=1;strokeColor=none;fillColor=none;align=center;verticalAlign=middle;whiteSpace=wrap;rounded=0;dashed=1;labelBackgroundColor=none;fontSize=20;fontColor=#FF0000;" vertex="1" parent="1">
          <mxGeometry x="860" y="804" width="30" height="18" as="geometry" />
        </mxCell>
        <mxCell id="ZXUQTXngMua6hEGJQAiq-329" value="" style="rounded=0;whiteSpace=wrap;html=1;labelBackgroundColor=none;fontSize=14;fillColor=none;strokeColor=#000000;dashed=1;" vertex="1" parent="1">
          <mxGeometry x="514" y="848" width="315" height="60" as="geometry" />
        </mxCell>
        <mxCell id="ZXUQTXngMua6hEGJQAiq-331" value="" style="rounded=0;whiteSpace=wrap;html=1;labelBackgroundColor=none;fontSize=14;fontColor=#000000;fillColor=none;dashed=1;" vertex="1" parent="1">
          <mxGeometry x="547" y="858" width="30" height="40" as="geometry" />
        </mxCell>
        <mxCell id="ZXUQTXngMua6hEGJQAiq-332" value="未消费消息" style="text;html=1;strokeColor=none;fillColor=none;align=center;verticalAlign=middle;whiteSpace=wrap;rounded=0;dashed=1;labelBackgroundColor=none;fontSize=14;fontColor=#000000;" vertex="1" parent="1">
          <mxGeometry x="584" y="863" width="72" height="30" as="geometry" />
        </mxCell>
        <mxCell id="ZXUQTXngMua6hEGJQAiq-333" value="" style="rounded=0;whiteSpace=wrap;html=1;labelBackgroundColor=none;fontSize=14;fillColor=#f8cecc;strokeColor=#000000;" vertex="1" parent="1">
          <mxGeometry x="684.5" y="858" width="30" height="40" as="geometry" />
        </mxCell>
        <mxCell id="ZXUQTXngMua6hEGJQAiq-334" value="已消费消息" style="text;html=1;strokeColor=none;fillColor=none;align=center;verticalAlign=middle;whiteSpace=wrap;rounded=0;dashed=1;labelBackgroundColor=none;fontSize=14;fontColor=#000000;" vertex="1" parent="1">
          <mxGeometry x="721.5" y="863" width="72" height="30" as="geometry" />
        </mxCell>
        <mxCell id="ZXUQTXngMua6hEGJQAiq-335" value="commitLog" style="text;html=1;strokeColor=none;fillColor=none;align=center;verticalAlign=middle;whiteSpace=wrap;rounded=0;labelBackgroundColor=none;fontSize=14;fontColor=#000000;" vertex="1" parent="1">
          <mxGeometry x="241.35999999999999" y="950" width="60" height="30" as="geometry" />
        </mxCell>
      </root>
    </mxGraphModel>
  </diagram>
</mxfile>
